<svg width="166" height="40" viewBox="0 0 166 40" fill="none" xmlns="http://www.w3.org/2000/svg">
<g clip-path="url(#clip0_1566_3671)">
<path d="M23.8284 39.9005H0.0760855C-0.378177 37.4114 1.23352 35.4636 4.05866 35.1525V33.8519C4.05866 27.2496 4.05866 20.641 4.05866 14.0386C4.05866 11.5495 5.01075 9.52088 7.40651 8.43812C8.05845 8.1494 8.75986 7.98883 9.47248 7.96519C12.5279 7.91541 15.5832 7.96519 18.6386 7.92163C19.5845 7.92163 19.7836 8.25144 19.7774 9.12263C19.7774 17.3305 19.7774 25.5383 19.7774 33.7524V35.084C22.6896 35.6005 24.0462 37.2122 23.8284 39.9005ZM15.2161 12.7132C13.592 12.7132 12.0363 12.6447 10.493 12.7132C9.68405 12.763 8.79419 12.9807 8.62618 14.0137C8.47821 14.7161 8.3949 15.4306 8.37727 16.1481C8.37727 22.0598 8.37727 27.9714 8.37727 33.8768V35.1214H15.2223L15.2161 12.7132Z" fill="#0196E3"/>
<path d="M42.6839 24.0635C42.6839 27.2682 42.6839 30.4792 42.6839 33.6839C42.6839 35.9863 42.0616 38.0399 39.8463 39.2471C39.1235 39.6361 38.3256 39.8653 37.5065 39.9191C35.5277 40.0125 33.5426 39.9191 31.5513 39.9191C30.1577 39.9109 28.8238 39.3524 27.8401 38.3652C26.8564 37.378 26.3026 36.0421 26.2993 34.6484C26.2993 27.6603 26.3553 20.6659 26.2682 13.6777C26.2241 12.2257 26.7515 10.8144 27.7372 9.74726C28.7229 8.68014 30.0879 8.04248 31.5389 7.97141C33.7415 7.85617 35.95 7.92486 38.1412 8.17677C39.2666 8.28626 40.3166 8.79175 41.1041 9.60316C41.8916 10.4146 42.3654 11.4792 42.4412 12.6074C42.6528 15.7561 42.6279 18.9235 42.6963 22.0847C42.6963 22.763 42.6839 23.4101 42.6839 24.0635ZM38.1972 24.0635C38.1972 21.0143 38.2408 17.9652 38.1972 14.916C38.1972 13.5595 37.9048 12.9123 36.5482 12.8127C35.1873 12.6801 33.8179 12.6593 32.4536 12.7505C31.1344 12.8687 30.5868 13.5719 30.5868 14.9783C30.5246 21.0392 30.5142 27.1023 30.5557 33.1674C30.5557 34.5551 31.3149 35.2085 32.7088 35.2272C33.7355 35.2272 34.7685 35.2272 35.8201 35.2272C37.6372 35.2272 38.2221 34.6484 38.2221 32.8687C38.2035 29.9378 38.1972 27.0007 38.1972 24.0635Z" fill="#0196E3"/>
<path d="M144.888 23.9266C144.888 27.4363 144.888 30.9522 144.888 34.468C144.895 35.685 144.499 36.8703 143.762 37.8385C143.025 38.8067 141.987 39.5033 140.812 39.8196C139.99 39.9547 139.155 39.9965 138.323 39.9441C136.873 39.9441 135.417 39.8507 133.967 39.9441C131.248 40.1681 128.541 37.5296 128.516 34.6609C128.454 27.5981 128.404 20.529 128.516 13.4662C128.572 10.6037 130.065 8.43193 133.544 8.015C135.891 7.77961 138.258 7.84653 140.588 8.21413C143.189 8.5875 144.869 10.9273 144.876 13.5906L144.888 23.9266ZM140.632 24.0635C140.632 22.4643 140.632 20.8588 140.632 19.2596C140.632 17.6603 140.526 15.9179 140.383 14.2813C140.386 14.099 140.353 13.9178 140.284 13.7487C140.216 13.5796 140.115 13.4259 139.986 13.297C139.857 13.168 139.703 13.0664 139.534 12.9982C139.365 12.9299 139.184 12.8965 139.001 12.8999C137.943 12.8563 136.892 12.7443 135.834 12.7132C133.569 12.651 132.915 13.2546 132.766 15.501C132.766 15.8433 132.766 16.1855 132.766 16.534V28.7617C132.701 29.9058 132.701 31.0526 132.766 32.1967C133.046 34.5987 132.859 35.3081 135.834 35.2334C136.4 35.2334 136.979 35.2334 137.545 35.2334C140.09 35.3081 140.513 34.8476 140.607 32.1967C140.7 29.5458 140.638 26.758 140.638 24.0635H140.632Z" fill="#0196E3"/>
<path d="M48.582 8.02124H52.7326V22.0972H59.7395V8.02124H63.9336V39.8694H59.7706V26.9758H52.7948V39.8694H48.582V8.02124Z" fill="#0196E3"/>
<path d="M150.131 8.00879H154.282V9.39647C154.282 17.038 154.282 24.6734 154.282 32.3087C154.282 35.2023 155.215 35.3143 157.2 35.2397C158.445 35.1961 159.639 35.2397 160.859 35.2397C160.98 35.2153 161.099 35.1799 161.214 35.1339V8.02123H165.408V39.8943C165.066 39.8943 164.699 39.9441 164.338 39.9441C161.28 39.9441 158.225 39.9441 155.172 39.9441C152.546 39.9441 150.056 37.6665 150.038 35.0219C149.988 26.1233 150.038 17.2309 150.038 8.33237C150.06 8.22218 150.091 8.11397 150.131 8.00879Z" fill="#0196E3"/>
<path d="M108.414 8.18928C112.198 8.18928 115.962 8.0586 119.708 8.23907C121.818 8.33863 123.791 10.8962 123.803 13.0306C123.803 15.8931 123.685 18.7556 123.834 21.6118C123.983 24.4681 121.308 27.1003 118.352 27.1127H112.633V39.8819H108.433L108.414 8.18928ZM112.633 22.3648C114.338 22.3648 115.969 22.4519 117.611 22.3648C117.88 22.377 118.148 22.3311 118.397 22.2302C118.646 22.1294 118.87 21.9759 119.055 21.7803C119.239 21.5848 119.379 21.3517 119.465 21.0971C119.551 20.8425 119.581 20.5723 119.553 20.305C119.584 18.4818 119.596 16.6523 119.553 14.8228C119.553 13.8645 119.186 12.9933 118.041 12.9124C116.28 12.7941 114.512 12.7444 112.67 12.6635L112.633 22.3648Z" fill="#0196E3"/>
<path d="M85.5332 16.2976H81.0528V15.053C81.0528 13.4849 80.7665 13.0182 79.2793 12.8066C78.1844 12.7039 77.0823 12.7039 75.9874 12.8066C74.7429 12.8626 74.3197 13.7151 74.3135 14.8103C74.3135 20.9875 74.3135 27.1708 74.3135 33.3604C74.3135 34.5614 75.0229 35.2272 76.2612 35.2272C77.1386 35.2272 78.0161 35.2272 78.8935 35.2272C80.3869 35.2272 81.0217 34.5614 81.0465 33.0679C81.0714 31.5745 81.0465 31.562 82.5276 31.562H83.1001C85.919 31.6305 85.5394 31.0331 85.5145 34.0511C85.5145 36.9136 83.8841 39.16 81.4137 39.7885C80.5155 39.9387 79.6028 39.9826 78.6943 39.9192C77.5897 39.8538 76.4822 39.8538 75.3776 39.9192C72.8885 40.2677 69.914 37.343 69.97 34.5365C70.1193 27.6707 70.1193 20.8029 69.97 13.9329C69.914 11.002 71.7373 8.33241 74.9918 7.98394C76.8844 7.8212 78.789 7.86083 80.6732 8.10217C84.3384 8.50665 85.2656 11.3442 85.5145 13.7027C85.6016 14.5739 85.5332 15.3766 85.5332 16.2976Z" fill="#0196E3"/>
<path d="M103.839 8.03979V12.6633H98.419V39.8817H94.1501V12.7442H88.4688V8.03979H103.839Z" fill="#0196E3"/>
<path d="M151.836 0H163.659C163.706 0.694082 163.706 1.39055 163.659 2.08463C163.627 2.56332 163.418 3.01301 163.073 3.34646C162.728 3.67991 162.272 3.87334 161.792 3.88923C159.067 3.95146 156.329 3.88923 153.603 3.80834C152.328 3.76478 151.929 2.83136 151.886 1.69882C151.836 1.16988 151.836 0.622278 151.836 0Z" fill="#0196E3"/>
</g>
<defs>
<clipPath id="clip0_1566_3671">
<rect width="165.414" height="40" fill="white"/>
</clipPath>
</defs>
</svg>
