<svg width="379" height="25" viewBox="0 0 379 25" fill="none" xmlns="http://www.w3.org/2000/svg">
<g clip-path="url(#clip0_1572_3850)">
<path d="M248.743 0.739808C249.881 0.739808 250.923 0.711353 251.942 0.739808C252.228 0.78213 252.491 0.925402 252.681 1.14386C255.716 4.53183 258.74 7.92548 261.753 11.3248C261.986 11.5923 262.202 11.8939 262.555 12.315C262.636 12.0281 262.693 11.7349 262.726 11.4386C262.726 8.09242 262.726 4.74618 262.686 1.39995C262.686 0.830862 262.868 0.682899 263.397 0.728426C263.92 0.779645 264.446 0.779645 264.968 0.728426C265.537 0.660135 265.691 0.88777 265.691 1.39995C265.691 3.76735 265.691 6.13476 265.691 8.50216C265.691 9.59481 265.657 10.6818 265.645 11.7744C265.668 11.9413 265.708 12.1053 265.765 12.2638C265.946 12.1411 266.117 12.0041 266.277 11.8541C269.156 8.62736 272.076 5.4234 274.887 2.10562C275.764 1.06419 276.634 0.569081 277.954 0.745498C278.536 0.780573 279.12 0.780573 279.702 0.745498C279.28 1.27475 278.962 1.71864 278.603 2.12838C275.966 5.14075 273.328 8.14743 270.687 11.1484C269.737 12.224 269.76 12.1785 270.687 13.3053C272.082 14.9784 273.413 16.7198 274.79 18.427C276.281 20.2538 277.801 22.0635 279.303 23.8903C279.463 24.0895 279.593 24.3171 279.832 24.6699C278.626 24.6699 277.59 24.6699 276.56 24.6699C276.378 24.6699 276.179 24.4366 276.042 24.2716C274.081 21.8852 272.121 19.495 270.164 17.1011C269.213 15.9629 268.263 14.7792 267.318 13.6069C266.988 13.1914 266.795 13.163 266.379 13.6069C266.111 13.8903 265.907 14.2281 265.782 14.5973C265.656 14.9666 265.611 15.3586 265.651 15.7466C265.685 18.4783 265.651 21.2042 265.651 23.9358C265.651 24.5049 265.531 24.8293 264.848 24.7268C264.326 24.6756 263.8 24.6756 263.278 24.7268C262.805 24.7268 262.652 24.5903 262.657 24.1008C262.657 21.1188 262.657 18.1368 262.697 15.1548C262.697 14.2499 262.157 13.7491 261.616 13.2142C261.512 13.1865 261.403 13.1844 261.298 13.2082C261.193 13.232 261.095 13.2809 261.013 13.3508C258.81 16.071 256.636 18.8083 254.451 21.5399C253.7 22.4789 252.949 23.4179 252.175 24.3171C251.944 24.5494 251.637 24.6907 251.31 24.7155C250.456 24.7667 249.603 24.7155 248.516 24.7155C249.051 24.0325 249.46 23.4919 249.887 22.9684C251.742 20.6692 253.601 18.3739 255.464 16.0824C256.323 15.0239 257.171 13.954 258.048 12.9126C258.469 12.4232 258.526 12.1102 258.048 11.5582C256.09 9.40701 254.212 7.17618 252.306 4.97951L249.045 1.22353C248.934 1.06892 248.833 0.907345 248.743 0.739808Z" fill="#0047BB"/>
<path d="M286.749 19.9638C287.022 19.5654 287.284 19.1614 287.574 18.7744C289.85 15.7582 292.081 12.7307 294.357 9.7259C296.516 6.88046 298.692 4.0521 300.885 1.24081C301.149 0.98522 301.488 0.821567 301.852 0.774154C302.245 0.688791 302.672 0.774154 303.076 0.7457C303.696 0.666027 303.844 0.933499 303.838 1.51397C303.838 6.63575 303.838 11.7575 303.838 16.8793C303.838 19.2012 303.838 21.5231 303.838 23.845C303.838 24.4596 303.662 24.727 303.025 24.6815C302.507 24.6474 301.983 24.6815 301.46 24.6815C300.936 24.6815 300.89 24.5108 300.89 24.0726C300.89 18.7004 300.902 13.3282 300.925 7.95603C300.925 7.34142 300.964 6.72681 300.959 6.11219C300.93 5.83866 300.876 5.56824 300.799 5.30409C300.088 6.36259 299.525 7.28451 298.87 8.14952C296.662 11.0633 294.426 13.9542 292.195 16.8509C290.351 19.2467 288.484 21.6198 286.669 24.0327C286.508 24.2738 286.284 24.4654 286.02 24.586C285.757 24.7067 285.465 24.7515 285.178 24.7157C283.607 24.636 283.602 24.6758 283.602 23.0938C283.602 15.9233 283.602 8.75276 283.602 1.58226C283.602 0.961953 283.761 0.700173 284.404 0.768463C284.881 0.81685 285.361 0.81685 285.838 0.768463C286.447 0.694482 286.567 0.967644 286.567 1.50259C286.567 4.34802 286.567 7.14793 286.567 9.9706C286.567 13.0892 286.532 16.2306 286.521 19.3264C286.535 19.5334 286.565 19.739 286.612 19.941L286.749 19.9638Z" fill="#0047BB"/>
<path d="M332.722 12.6737C332.722 8.96325 332.722 5.27556 332.722 1.54235C332.722 0.973261 332.853 0.654572 333.524 0.745626C333.999 0.799682 334.478 0.799682 334.953 0.745626C335.59 0.665954 335.715 0.944807 335.715 1.51958C335.715 4.42762 335.715 7.34135 335.715 10.2551C335.715 11.1372 335.749 11.1656 336.637 11.1713C340.939 11.1713 345.236 11.1713 349.538 11.1998C350.107 11.1998 350.216 10.9209 350.21 10.4486C350.21 7.48931 350.21 4.53006 350.21 1.57649C350.21 0.89928 350.403 0.677336 351.058 0.745626C351.512 0.793981 351.97 0.793981 352.424 0.745626C353.027 0.677336 353.226 0.904971 353.22 1.49682C353.22 4.27397 353.22 7.05111 353.22 9.82826C353.22 14.4891 353.22 19.1556 353.22 23.8221C353.22 24.4595 353.078 24.7554 352.384 24.6757C351.884 24.6387 351.382 24.6387 350.881 24.6757C350.386 24.6757 350.216 24.505 350.221 23.9928C350.221 21.0393 350.221 18.08 350.221 15.1208C350.221 13.8802 350.221 13.8858 349.009 13.8858H336.819C335.681 13.8858 335.681 13.8858 335.681 15.024C335.681 17.9833 335.681 20.9425 335.681 23.9018C335.681 24.4709 335.51 24.7327 334.901 24.6701C334.45 24.6132 333.993 24.6132 333.541 24.6701C332.79 24.7839 332.682 24.4367 332.688 23.788C332.733 20.0889 332.722 16.3785 332.722 12.6737Z" fill="#0047BB"/>
<path d="M317.414 13.8346C316.64 13.8346 315.866 13.8346 315.092 13.8346C314.671 13.8346 314.454 13.7265 314.489 13.2655C314.523 12.7653 314.523 12.2634 314.489 11.7631C314.489 11.2794 314.665 11.1201 315.132 11.1315C316.224 11.1315 317.317 11.1827 318.41 11.1315C320.014 11.0404 321.557 10.7274 322.82 9.59492C323.214 9.25702 323.521 8.82989 323.716 8.34913C323.911 7.86837 323.989 7.34791 323.942 6.83115C323.895 6.31439 323.726 5.8163 323.447 5.37841C323.169 4.94051 322.79 4.57549 322.342 4.31379C320.709 3.27236 318.928 3.22684 317.084 3.26667C314.551 3.32358 312.565 4.50728 310.909 6.31698C310.625 6.62998 310.477 6.6755 310.152 6.37958C309.747 6.01572 309.307 5.69351 308.838 5.41782C308.411 5.17311 308.422 4.93979 308.712 4.61541C310.152 2.89731 312.069 1.64549 314.221 1.01878C316.577 0.373137 319.055 0.316462 321.437 0.853742C322.359 1.00753 323.24 1.35029 324.023 1.86052C324.807 2.37074 325.476 3.03742 325.99 3.81869C327.652 6.52185 327.128 9.94207 324.1 11.6436C324.017 11.6804 323.937 11.7242 323.861 11.7745L323.429 12.1558C323.579 12.3045 323.752 12.4275 323.941 12.52C325.147 12.8755 326.193 13.6355 326.904 14.6719C327.615 15.7084 327.947 16.9582 327.845 18.2109C327.749 19.409 327.335 20.5596 326.644 21.5433C325.954 22.527 325.013 23.308 323.918 23.805C321.593 24.8882 319.001 25.2642 316.463 24.8863C314.58 24.7083 312.751 24.161 311.08 23.2758C309.847 22.5906 308.783 21.6378 307.967 20.4873C307.931 20.3924 307.921 20.2896 307.938 20.1895C307.955 20.0895 307.998 19.9958 308.064 19.9182C308.562 19.4876 309.086 19.0885 309.634 18.7231C309.73 18.6878 309.833 18.6786 309.933 18.6966C310.033 18.7147 310.126 18.7592 310.203 18.8255C311.13 19.8647 312.264 20.6983 313.533 21.2726C315.168 22.002 316.952 22.3354 318.74 22.2457C320.186 22.2392 321.602 21.8271 322.826 21.0563C323.494 20.6982 324.039 20.1489 324.393 19.4788C324.747 18.8086 324.893 18.0481 324.812 17.2947C324.67 15.8321 323.594 15.0639 322.376 14.5061C320.794 13.7891 319.098 13.8119 317.414 13.8346Z" fill="#0047BB"/>
<path d="M359.351 12.7136C359.351 8.98037 359.351 5.24715 359.351 1.51963C359.351 0.950547 359.454 0.671694 360.097 0.745675C360.594 0.802563 361.096 0.802563 361.594 0.745675C362.163 0.677385 362.299 0.899329 362.294 1.42289C362.294 3.90411 362.294 6.38533 362.294 8.86655C362.294 9.74294 362.294 9.7714 363.221 9.7714C365.429 9.7714 367.643 9.68034 369.84 9.83969C371.397 9.9111 372.933 10.226 374.392 10.773C375.463 11.1858 376.391 11.899 377.065 12.8268C377.739 13.7547 378.131 14.8576 378.194 16.0029C378.433 18.4386 377.949 20.6296 376.145 22.3596C375.185 23.2777 373.979 23.8983 372.674 24.1465C371.227 24.4334 369.76 24.6047 368.286 24.6587C365.532 24.7384 362.777 24.6587 360.029 24.6587C359.46 24.6587 359.334 24.4994 359.34 23.953C359.363 20.2198 359.351 16.4639 359.351 12.7136ZM362.282 17.1581C362.282 18.4955 362.282 19.8386 362.282 21.1816C362.282 21.8076 362.51 21.9556 363.085 21.9499C364.678 21.9157 366.271 21.9499 367.859 21.9499C368.883 21.9716 369.906 21.8954 370.915 21.7222C373.334 21.2044 375.138 20.0605 375.183 17.0728C375.239 16.4056 375.113 15.7357 374.818 15.1345C374.524 14.5333 374.072 14.0231 373.51 13.6583C372.319 12.9046 370.936 12.5095 369.527 12.5201C367.347 12.4347 365.162 12.5201 362.976 12.4689C362.407 12.4689 362.282 12.6908 362.294 13.203C362.299 14.5176 362.282 15.8379 362.282 17.1581Z" fill="#0047BB"/>
<path fill-rule="evenodd" clip-rule="evenodd" d="M21.5395 24.3854H16.3722V8.63305L5.03029 24.3854H0.0507812V0.375598H5.28069V16.1336L16.6852 0.375598H21.5395V24.3854ZM25.3183 0.443888H30.6108V9.89073H41.1958V0.443888H46.4883V24.3854H41.1958V14.745H30.6108V24.3854H25.3183V0.443888ZM55.4799 24.3854H50.2727V0.375598H66.5259V5.16731H55.5026V24.3854H55.4799ZM91.9015 12.4346C91.9242 5.12178 86.626 0.125199 79.3189 0H79.1937C71.8867 0.0625996 66.5885 5.12178 66.5885 12.3492C66.5885 19.5766 71.8867 24.6358 79.1937 24.6984H79.3189C86.626 24.6984 91.9242 19.662 91.9242 12.4118L91.9015 12.4346ZM79.2563 19.9181C75.0337 19.9181 72.0745 17.0214 72.0745 12.4175C72.0745 7.81357 75.0337 4.9226 79.2563 4.9226C83.479 4.9226 86.4382 7.81926 86.4382 12.4175C86.4382 17.0157 83.479 19.9181 79.2563 19.9181ZM147.057 5.29251H139.306V0.443888H160.038V5.29251H152.35V24.3854H147.057V5.29251ZM163.248 0.443888H174.026C179.757 0.443888 183.223 3.85841 183.223 8.75825C183.223 14.3012 178.943 17.2035 173.52 17.2035H168.546V24.3854H163.248V0.443888ZM173.622 12.4744C176.269 12.4744 177.782 10.9037 177.782 8.75825C177.782 6.42499 176.143 5.10471 173.497 5.10471H168.501V12.4118H173.622V12.4744ZM230.4 24.3854L221.915 12.0988L230.042 0.375598H223.992L218.871 7.77373L213.749 0.375598H207.489L215.735 12.224L207.233 24.3854H213.282L218.762 16.5035L224.186 24.3797L230.4 24.3854ZM201.286 24.3854H206.641L196.386 0.250398H191.532L181.271 24.3854H186.626L188.902 18.8425H199.049L201.326 24.3854H201.286ZM190.786 14.176L194.001 6.68108L197.217 14.176H190.786ZM106.857 19.9181C102.634 19.9181 99.6695 17.0214 99.6695 12.4175C99.6695 7.81357 102.634 4.9226 106.857 4.9226C108.902 4.86249 110.897 5.55734 112.463 6.87457L115.741 3.59663C114.575 2.45631 113.196 1.55755 111.682 0.952036C110.168 0.346519 108.55 0.0461818 106.92 0.0682905H106.794C99.4817 0.13089 94.1892 5.19007 94.1892 12.4175C94.1892 19.6449 99.4817 24.7041 106.794 24.7667H106.92C110.197 24.7318 113.343 23.4734 115.741 21.2383L112.463 17.9661C110.896 19.281 108.902 19.9755 106.857 19.9181ZM128.847 19.9181C124.624 19.9181 121.665 17.0214 121.665 12.4175C121.665 7.81357 124.624 4.9226 128.847 4.9226C130.892 4.86034 132.888 5.55545 134.452 6.87457L137.73 3.59663C136.565 2.45605 135.186 1.55713 133.672 0.951597C132.158 0.346063 130.539 0.0458692 128.909 0.0682905H128.784C121.477 0.13089 116.179 5.19007 116.179 12.4175C116.179 19.6449 121.471 24.7041 128.784 24.7667H128.909C132.187 24.7329 135.333 23.4743 137.73 21.2383L134.452 17.9661C132.886 19.2819 130.891 19.9766 128.847 19.9181Z" fill="#0047BB"/>
</g>
<defs>
<clipPath id="clip0_1572_3850">
<rect width="378.198" height="25" fill="white" transform="translate(0.0507812)"/>
</clipPath>
</defs>
</svg>
