<svg width="135" height="40" viewBox="0 0 135 40" fill="none" xmlns="http://www.w3.org/2000/svg">
<g clip-path="url(#clip0_1566_3681)">
<path d="M118.171 37.0315C117.921 37.0145 117.678 36.9478 117.455 36.8353C117.231 36.7228 117.033 36.5667 116.871 36.3764C116.709 36.186 116.587 35.9652 116.512 35.7268C116.436 35.4885 116.409 35.2375 116.432 34.9886C116.399 34.7342 116.419 34.4756 116.491 34.2293C116.563 33.9829 116.684 33.7539 116.849 33.5568C117.013 33.3597 117.216 33.1987 117.446 33.0838C117.675 32.9689 117.926 32.9027 118.182 32.8893C119.367 32.8893 119.807 33.9164 119.807 34.9548C119.807 35.9931 119.344 37.0767 118.171 37.0767M118.396 31.9638C118.024 31.9384 117.651 31.9995 117.306 32.1425C116.962 32.2854 116.655 32.5063 116.41 32.7877V32.0767H115.281V40.0451H116.478V37.1557C116.72 37.4304 117.022 37.6463 117.36 37.7871C117.699 37.9279 118.064 37.9898 118.43 37.9683C120.281 37.9683 121.116 36.4333 121.116 34.8306C121.155 34.4588 121.114 34.0832 120.996 33.7284C120.879 33.3736 120.687 33.0478 120.434 32.7726C120.182 32.4974 119.873 32.2789 119.53 32.1317C119.186 31.9845 118.815 31.9119 118.442 31.9186" fill="#164194"/>
<path d="M132.077 34.2211H129.38V32.0315H128.172V37.8554H129.38V35.2595H132.077V37.8554H133.273V32.0315H132.077V34.2211Z" fill="#164194"/>
<path d="M105.045 32.9118C105.235 32.9036 105.424 32.9352 105.6 33.0046C105.777 33.074 105.937 33.1797 106.07 33.3148C106.203 33.45 106.306 33.6115 106.372 33.789C106.439 33.9665 106.468 34.156 106.456 34.3452H103.409C103.441 33.94 103.63 33.5632 103.935 33.2954C104.241 33.0276 104.64 32.8899 105.045 32.9118ZM103.386 35.1127H107.641C107.641 32.9682 106.626 31.9186 105.012 31.9186C104.627 31.9066 104.243 31.9755 103.887 32.1208C103.53 32.2661 103.208 32.4846 102.941 32.7622C102.674 33.0399 102.468 33.3704 102.337 33.7325C102.206 34.0946 102.152 34.4802 102.179 34.8644C102.154 35.2651 102.212 35.6666 102.349 36.044C102.486 36.4213 102.7 36.7663 102.976 37.0575C103.252 37.3487 103.586 37.5798 103.955 37.7365C104.325 37.8932 104.723 37.9721 105.124 37.9682C105.986 37.9873 106.831 37.7345 107.54 37.2459V36.1172C106.914 36.5492 106.178 36.7921 105.418 36.817C105.169 36.8385 104.918 36.8101 104.681 36.7334C104.443 36.6566 104.223 36.5331 104.034 36.3701C103.844 36.2071 103.69 36.0079 103.578 35.7842C103.467 35.5605 103.402 35.3169 103.386 35.0676" fill="#164194"/>
<path d="M54.1771 34.7289C54.5629 34.4528 54.845 34.0554 54.9785 33.6002C55.159 33.1374 55.3848 32.9343 55.7911 32.9343C55.9683 32.9269 56.143 32.9785 56.2877 33.081V32.0878C56.0789 32.0066 55.8571 31.9646 55.6331 31.9636C54.5947 31.9636 54.2335 32.6634 53.9739 33.318C53.7143 33.9727 53.4096 34.3225 53.0033 34.3225H52.7211V32.0652H51.5586V37.8891H52.7663V35.248H53.1387C53.6128 35.248 53.8837 35.5076 54.448 36.3767C54.7979 36.9072 55.08 37.3474 55.4299 37.8666H56.7166L55.3961 35.835C55.001 35.2368 54.7076 34.853 54.2674 34.7063" fill="#164194"/>
<path d="M80.7685 34.2211H78.071V32.0315H76.8633V37.8554H78.071V35.2595H80.7685V37.8554H81.9649V32.0315H80.7685V34.2211Z" fill="#164194"/>
<path d="M66.2985 36.9299C65.7961 36.892 65.3265 36.6657 64.9839 36.2963C64.6412 35.9269 64.4508 35.4416 64.4508 34.9378C64.4508 34.4339 64.6412 33.9487 64.9839 33.5792C65.3265 33.2098 65.7961 32.9835 66.2985 32.9457C66.5638 32.9302 66.8293 32.9694 67.0788 33.0607C67.3283 33.152 67.5564 33.2936 67.7489 33.4766C67.9415 33.6597 68.0944 33.8803 68.1983 34.1248C68.3021 34.3694 68.3547 34.6326 68.3527 34.8983C68.3734 35.1723 68.3342 35.4475 68.238 35.7049C68.1417 35.9623 67.9907 36.1957 67.7953 36.3889C67.5999 36.5822 67.3648 36.7306 67.1064 36.824C66.848 36.9174 66.5723 36.9536 66.2985 36.9299ZM66.2985 31.9186C65.7075 31.965 65.143 32.1834 64.6746 32.5469C64.2063 32.9104 63.8546 33.403 63.663 33.964C63.4714 34.5251 63.4482 35.1299 63.5963 35.704C63.7444 36.278 64.0574 36.7961 64.4965 37.1944C64.9357 37.5927 65.4818 37.8536 66.0675 37.9451C66.6533 38.0366 67.253 37.9546 67.7927 37.7093C68.3324 37.4639 68.7884 37.0659 69.1046 36.5644C69.4207 36.0628 69.5831 35.4797 69.5717 34.887C69.5621 34.4738 69.4686 34.0668 69.2968 33.6909C69.1249 33.3149 68.8785 32.9779 68.5723 32.7002C68.2661 32.4225 67.9066 32.21 67.5157 32.0757C67.1249 31.9413 66.7107 31.8879 66.2985 31.9186Z" fill="#164194"/>
<path d="M94.6719 32.0315H93.4642V36.817H90.7667V32.0315H89.5703V37.8554H94.3559V39.0744H95.4394V36.817H94.6719V32.0315Z" fill="#164194"/>
<path d="M60.5879 18.2393L66.536 9.89844H61.2087L56.2651 17.1671H56.2087V9.89844H51.5586V27.7314H56.2087V19.7743H56.2651L61.5699 27.7314H67.1794L60.5879 18.2393Z" fill="#164194"/>
<path d="M120.035 9.89844V13.5215H124.877V27.6185H129.527V13.5215H134.381V9.89844H120.035Z" fill="#164194"/>
<path d="M117.778 23.5102C116.707 23.9565 115.553 24.1718 114.392 24.1423C113.681 24.1504 112.975 24.0184 112.314 23.7537C111.654 23.4889 111.052 23.0967 110.543 22.5994C110.035 22.1021 109.629 21.5094 109.349 20.8553C109.069 20.2011 108.921 19.4982 108.913 18.7868C108.905 18.0753 109.037 17.3692 109.301 16.7088C109.566 16.0484 109.958 15.4466 110.456 14.9378C110.953 14.4289 111.546 14.023 112.2 13.7432C112.854 13.4634 113.557 13.3152 114.268 13.3071C115.424 13.2927 116.573 13.4956 117.654 13.9053L118.783 10.3613C117.103 9.71387 115.311 9.41065 113.512 9.46961C112.273 9.43197 111.039 9.64246 109.882 10.0887C108.725 10.535 107.67 11.208 106.777 12.0682C105.884 12.9283 105.172 13.9584 104.683 15.0976C104.194 16.2369 103.938 17.4624 103.93 18.7021C103.93 24.8082 108.681 28.0813 113.648 28.0813C115.429 28.0996 117.196 27.7699 118.851 27.1107L117.778 23.5102Z" fill="#164194"/>
<path d="M74.2692 17.9911H73.1406V13.1379H73.2422C73.7395 13.0695 74.2413 13.0393 74.7433 13.0476C75.088 13.0069 75.4373 13.0376 75.7696 13.1379C76.1019 13.2381 76.4099 13.4057 76.6746 13.6301C76.9394 13.8546 77.155 14.1312 77.3082 14.4426C77.4613 14.754 77.5488 15.0937 77.565 15.4403C77.565 16.8399 76.6394 18.0024 74.1789 18.0024M73.9081 9.53741C72.0812 9.53819 70.2564 9.65884 68.4453 9.89858V27.7315H73.0841V21.3659H74.3031C80.0255 21.3659 82.0458 18.3975 82.0458 15.3388C82.0458 11.8625 79.1338 9.52612 73.9081 9.52612" fill="#164194"/>
<path d="M92.8446 24.4471C90.1696 24.4471 88.138 22.2913 88.138 18.8037C88.138 15.3161 90.1696 13.1604 92.8446 13.1604C95.5195 13.1604 97.5624 15.3048 97.5624 18.8037C97.5624 22.3026 95.5195 24.4471 92.8446 24.4471ZM92.8446 9.39062C87.4157 9.39062 83.1719 13.1265 83.1719 18.7811C83.1719 24.4358 87.4157 28.2168 92.8446 28.2168C98.2735 28.2168 102.517 24.4809 102.517 18.8263C102.517 13.1717 98.2735 9.43577 92.8446 9.43577" fill="#164194"/>
<path d="M44.6382 27.9346H33.6562L39.1529 37.0768L44.6382 27.9346Z" fill="#FDD653"/>
<path d="M7.00833 37.0768L12.4937 27.9346H1.51172L7.00833 37.0768Z" fill="#FDD653"/>
<path d="M17.5859 1.18506L23.0826 10.3273L28.5679 1.18506H17.5859Z" fill="#FDD653"/>
<path d="M16.7043 0L0 27.7878L6.37698 38.3747H39.7856L46.1625 27.754L29.4582 0H16.7043ZM44.6388 27.9345L39.1535 37.0767L33.6682 27.9345H12.4944L7.00903 37.0767L1.51242 27.9345H12.4944L23.0813 10.3273L17.5847 1.1851H28.5666L23.0813 10.3273L33.6682 27.9345H44.6388Z" fill="#164194"/>
</g>
<defs>
<clipPath id="clip0_1566_3681">
<rect width="134.368" height="40" fill="white"/>
</clipPath>
</defs>
</svg>
