<svg width="95" height="40" viewBox="0 0 95 40" fill="none" xmlns="http://www.w3.org/2000/svg">
<g clip-path="url(#clip0_1566_3680)">
<path fill-rule="evenodd" clip-rule="evenodd" d="M22.3841 21.6603V9.63079L15.9487 19.2616H11.8762L5.53024 9.63079V21.6603H0.714844V0H6.15678L14.0422 13.5511L22.2946 0H27.1548L27.1995 21.6603H22.3841Z" fill="#2B2A29"/>
<path fill-rule="evenodd" clip-rule="evenodd" d="M32.0156 0H36.831V14.4462L48.8606 0H53.676V21.6603H48.8606V7.22309L36.831 21.6603H32.0156V0Z" fill="#2B2A29"/>
<path fill-rule="evenodd" clip-rule="evenodd" d="M94.5995 16.854C94.5995 17.8064 94.3171 18.7374 93.788 19.5293C93.2589 20.3211 92.5068 20.9383 91.6269 21.3028C90.747 21.6673 89.7788 21.7626 88.8447 21.5768C87.9106 21.391 87.0526 20.9324 86.3791 20.259C85.7057 19.5855 85.2471 18.7275 85.0613 17.7934C84.8755 16.8593 84.9708 15.8911 85.3353 15.0112C85.6998 14.1313 86.317 13.3792 87.1089 12.8501C87.9007 12.321 88.8317 12.0386 89.7841 12.0386C91.0613 12.0386 92.2861 12.5459 93.1891 13.449C94.0922 14.352 94.5995 15.5768 94.5995 16.854Z" fill="#D52427"/>
<path fill-rule="evenodd" clip-rule="evenodd" d="M6.50705 37.4849V39.9015C6.32529 39.9632 6.13508 39.9964 5.94316 40C5.7478 40.0026 5.55362 39.9692 5.37033 39.9015V38.4873H1.14567V39.8747C0.960042 39.932 0.767098 39.9621 0.572835 39.9642C0.378466 39.9634 0.185329 39.9333 0 39.8747L0 37.458H0.528082C0.939808 37.1895 1.22623 36.4197 1.34258 34.7728L1.6111 31.1926H5.72835V37.3775L6.50705 37.4849ZM2.55986 34.9071C2.53144 35.7965 2.34033 36.6733 1.99597 37.4938H4.47527V32.2219H2.74782L2.55986 34.9071Z" fill="#006B87"/>
<path fill-rule="evenodd" clip-rule="evenodd" d="M12.7992 31.3269C12.8635 31.48 12.897 31.6442 12.8977 31.8102C12.9015 31.997 12.868 32.1826 12.7992 32.3562H9.94399V34.3611H12.298C12.4296 34.6947 12.4296 35.0658 12.298 35.3994H9.94399V37.5117H12.8977C12.9641 37.6708 13.0005 37.8407 13.0051 38.013C13.0048 38.1944 12.9683 38.3739 12.8977 38.541H8.66406V31.3269H12.7992Z" fill="#006B87"/>
<path fill-rule="evenodd" clip-rule="evenodd" d="M17.9807 31.3269C18.2483 31.3132 18.5157 31.3569 18.7651 31.4551C19.0144 31.5532 19.2399 31.7036 19.4263 31.896C19.6128 32.0884 19.756 32.3184 19.8463 32.5707C19.9366 32.823 19.9719 33.0916 19.9498 33.3587C19.9613 33.6451 19.899 33.9297 19.7689 34.1852C19.6389 34.4406 19.4453 34.6584 19.2069 34.8176C19.5066 34.9672 19.7561 35.201 19.9246 35.4904C20.0932 35.7798 20.1735 36.1122 20.1557 36.4466C20.1626 36.7242 20.1114 37.0001 20.0056 37.2568C19.8998 37.5134 19.7416 37.7452 19.5411 37.9373C19.3406 38.1293 19.1023 38.2774 18.8413 38.3722C18.5803 38.4669 18.3025 38.5061 18.0255 38.4873H15.1523V31.3269H17.9807ZM17.6943 34.4059C17.8302 34.4161 17.9667 34.3952 18.0933 34.3446C18.2199 34.2941 18.3333 34.2153 18.4248 34.1143C18.5163 34.0133 18.5835 33.8927 18.6214 33.7618C18.6592 33.6308 18.6666 33.4929 18.6431 33.3587C18.6431 32.7321 18.3477 32.3115 17.6943 32.3115H16.4412V34.4059H17.6943ZM17.748 37.5565C17.8959 37.5693 18.0447 37.5482 18.1831 37.4948C18.3216 37.4414 18.4461 37.3571 18.547 37.2484C18.648 37.1396 18.7229 37.0093 18.7659 36.8672C18.8089 36.7252 18.8189 36.5752 18.7952 36.4287C18.7952 35.6769 18.4461 35.3189 17.7122 35.3189H16.4412V37.5296L17.748 37.5565Z" fill="#006B87"/>
<path fill-rule="evenodd" clip-rule="evenodd" d="M26.546 31.3269C26.6061 31.4812 26.6394 31.6447 26.6444 31.8102C26.6482 31.997 26.6147 32.1826 26.546 32.3562H23.6818V34.3611H26.0447C26.104 34.5219 26.1372 34.6911 26.1432 34.8624C26.146 35.0461 26.1126 35.2286 26.0447 35.3994H23.6818V37.5117H26.6444C26.708 37.6713 26.7414 37.8412 26.7429 38.013C26.7457 38.1938 26.7122 38.3734 26.6444 38.541H22.375V31.3269H26.546Z" fill="#006B87"/>
<path fill-rule="evenodd" clip-rule="evenodd" d="M28.3735 38.4873C28.3216 38.3376 28.2944 38.1804 28.293 38.0219C28.2952 37.8752 28.3224 37.7299 28.3735 37.5923C28.5014 37.6074 28.6306 37.6074 28.7584 37.5923C29.0717 37.5475 29.6535 37.0732 29.8414 34.576L30.092 31.3269H34.1019V38.4873C33.9004 38.5557 33.6879 38.5861 33.4753 38.5768C33.2566 38.5947 33.0365 38.5641 32.8309 38.4873V32.2846H31.2287L31.0587 34.5222C30.7902 38.1025 29.6355 38.5679 28.9553 38.5679C28.7586 38.5678 28.5628 38.5407 28.3735 38.4873Z" fill="#006B87"/>
<path fill-rule="evenodd" clip-rule="evenodd" d="M39.275 31.2017C41.0651 31.2017 42.175 32.3115 42.175 34.9072C42.175 37.5028 41.074 38.6127 39.275 38.6127C37.4759 38.6127 36.375 37.5028 36.375 34.9072C36.375 32.3115 37.5117 31.2017 39.275 31.2017ZM39.275 32.2578C38.3799 32.2578 37.7355 32.7859 37.7355 34.943C37.7355 37.1001 38.3531 37.6282 39.275 37.6282C40.1969 37.6282 40.8234 37.0911 40.8234 34.943C40.8234 32.7949 40.2148 32.222 39.275 32.222V32.2578Z" fill="#006B87"/>
<path fill-rule="evenodd" clip-rule="evenodd" d="M49.5421 38.4247C49.3406 38.4931 49.1281 38.5234 48.9155 38.5142C48.6939 38.5292 48.4716 38.4988 48.2622 38.4247V32.401H45.7291V38.4247C45.5241 38.4911 45.3091 38.5214 45.0937 38.5142C44.875 38.5287 44.6556 38.4983 44.4492 38.4247V31.3269H49.5421V38.4247Z" fill="#006B87"/>
<path fill-rule="evenodd" clip-rule="evenodd" d="M57.9899 31.327C58.2699 31.3241 58.5493 31.3542 58.8223 31.4165V38.4516C58.6204 38.5184 58.4082 38.5487 58.1957 38.5411C57.9745 38.5467 57.7539 38.5165 57.5424 38.4516V36.2319C57.5049 35.1245 57.5289 34.0159 57.614 32.9112H57.5513C57.2407 33.7818 56.8729 34.631 56.4504 35.4532L55.7433 36.9211C55.6247 36.9589 55.5008 36.9771 55.3763 36.9748C55.2662 36.9813 55.1561 36.9629 55.0541 36.9211C54.8214 36.4467 54.5797 36.026 54.356 35.4979C53.9038 34.6698 53.5235 33.8044 53.2192 32.9112H53.1566C53.2821 33.9294 53.324 34.9562 53.2819 35.9812V38.4247C53.089 38.4904 52.8859 38.5208 52.6822 38.5142C52.4874 38.5191 52.2934 38.4888 52.1094 38.4247V31.3896C52.361 31.3265 52.6197 31.2964 52.8791 31.3001C53.1351 31.3039 53.39 31.3339 53.6399 31.3896L54.535 33.1797C54.8753 33.8131 55.1742 34.4679 55.43 35.1399H55.4927C55.6034 34.7851 55.7379 34.4382 55.8955 34.1016C56.343 33.2066 56.7905 32.3115 57.1933 31.3449C57.4576 31.3123 57.7244 31.3063 57.9899 31.327Z" fill="#006B87"/>
<path fill-rule="evenodd" clip-rule="evenodd" d="M65.5465 31.3269C65.6066 31.4812 65.6399 31.6447 65.6449 31.8102C65.6443 31.9966 65.6109 32.1814 65.5465 32.3562H62.6554V34.3611H65.0184C65.0776 34.5219 65.1109 34.6911 65.1168 34.8624C65.1197 35.0461 65.0862 35.2286 65.0184 35.3994H62.6554V37.5117H65.6181C65.6816 37.6713 65.715 37.8412 65.7165 38.013C65.7194 38.1938 65.6859 38.3734 65.6181 38.541H61.4023V31.3269H65.5465Z" fill="#006B87"/>
<path fill-rule="evenodd" clip-rule="evenodd" d="M71.8088 31.3895C72.0136 31.3216 72.2288 31.2913 72.4443 31.3C72.6627 31.2923 72.8808 31.3226 73.0888 31.3895V38.4246C72.8869 38.4914 72.6747 38.5217 72.4622 38.5141C72.2406 38.5291 72.0183 38.4987 71.8088 38.4246V35.3724H69.1237V38.4246C68.9154 38.4901 68.6975 38.5204 68.4792 38.5141C68.2635 38.5282 68.0472 38.4977 67.8438 38.4246V31.3895C68.0453 31.3211 68.2577 31.2907 68.4703 31.3C68.6916 31.292 68.9127 31.3222 69.1237 31.3895V34.2626H71.8088V31.3895Z" fill="#006B87"/>
<path fill-rule="evenodd" clip-rule="evenodd" d="M80.0447 31.3269C80.1083 31.4989 80.1416 31.6806 80.1431 31.8639C80.1435 32.0562 80.1102 32.247 80.0447 32.4278H78.2546V38.4515C78.0462 38.5171 77.8284 38.5473 77.6101 38.541C77.3944 38.5551 77.1781 38.5247 76.9746 38.4515V32.401H75.1845C75.1169 32.2301 75.0835 32.0477 75.0861 31.8639C75.0888 31.6807 75.1221 31.4992 75.1845 31.3269H80.0447Z" fill="#006B87"/>
<path fill-rule="evenodd" clip-rule="evenodd" d="M77.7538 16.8539V0H72.9384V16.8539H63.3076V0H58.4922V21.6603H75.355V24.068H80.1525V16.8539H77.7538Z" fill="#2B2A29"/>
</g>
<defs>
<clipPath id="clip0_1566_3680">
<rect width="94.5984" height="40" fill="white"/>
</clipPath>
</defs>
</svg>
